<svg width="54" height="12" viewBox="0.375 0.3000030517578125 53.25 11.399993896484375" fill="none" xmlns="http://www.w3.org/2000/svg">
<path d="M9.7251 9.47293C9.7251 9.17829 0.895749 0.430245 0.895749 0.430245L0 1.32579L2.15169 3.47701H0.380297C0.170273 3.47701 1.56203e-05 3.64727 1.56203e-05 3.85729V7.47018C1.56203e-05 7.6802 0.170274 7.85046 0.380297 7.85046H3.0711L6.31362 10.9467C6.5556 11.1777 6.95652 11.0062 6.95652 10.6716V8.28082L8.95735 10.2812L9.7251 9.47293Z" fill="black"/>
<path d="M4.47868 2.22133L6.95652 4.69864V0.851635C6.95652 0.522749 6.56728 0.348944 6.3224 0.56848L4.47868 2.22133Z" fill="black"/>
<path d="M19.5393 0.255869C19.4831 0.312161 19.1089 0.398773 18.7079 0.448412C17.0814 0.649781 15.9828 1.10536 14.7476 2.09097C14.0776 2.62548 13.9385 2.92843 14.2294 3.21922C14.4946 3.48443 14.9316 3.38822 15.5277 2.93341C16.2761 2.36219 16.6608 2.16888 17.8282 1.77701C19.1285 1.34063 21.0827 1.31696 22.1392 1.72469C22.5252 1.87373 23.0307 2.0609 23.2624 2.14048C23.4942 2.22018 24.0113 2.52991 24.4115 2.82902C25.1705 3.3959 25.437 3.47688 25.6948 3.21922C25.9395 2.97448 25.875 2.67115 25.4937 2.27225C24.6461 1.38592 23.036 0.646327 21.4336 0.407345C19.8722 0.174504 19.6393 0.155824 19.5393 0.255869Z" fill="black"/>
<path d="M18.9384 2.7355C18.0104 2.8555 17.4715 3.03883 16.8375 3.4504C15.7131 4.18014 15.4879 4.5894 16.0099 4.95504C16.3338 5.18187 16.4865 5.13427 17.4028 4.52044C18.1803 3.99962 18.5656 3.88896 19.9166 3.79851C21.0639 3.72162 22.2267 4.0815 23.1464 4.79806C23.5322 5.09871 23.8312 5.09986 24.101 4.8019C24.4266 4.44215 24.3571 4.20381 23.8242 3.85109C22.6187 3.05355 21.8565 2.77171 20.7298 2.70697C20.1316 2.67269 19.3254 2.68548 18.9384 2.7355Z" fill="black"/>
<path d="M18.7616 5.29739C17.7415 5.68478 17.2821 6.27136 17.6843 6.67346C17.9074 6.89645 18.2233 6.86267 18.7339 6.56152C19.3855 6.1772 20.6772 6.18692 21.522 6.5825C22.0003 6.80651 22.2071 6.84592 22.3699 6.74382C22.9639 6.37179 22.5011 5.70525 21.3591 5.28793C20.515 4.97948 19.5901 4.9828 18.7616 5.29739Z" fill="black"/>
<path d="M19.4061 7.82858C19.2896 7.95728 19.1943 8.14113 19.1943 8.23733C19.1943 8.48719 19.8423 9.12981 20.0941 9.12981C20.604 9.12981 20.9543 8.12603 20.5763 7.74811C20.3431 7.51501 19.6465 7.56299 19.4061 7.82858Z" fill="black"/>
<path d="M23.1867 7.49224C23.1022 7.57668 23.0331 7.88858 23.0331 8.18539C23.0331 8.6819 22.9949 8.74357 22.5533 8.9594C21.8637 9.29625 21.8718 9.61161 22.5887 10.3284C22.9147 10.6543 23.2874 10.9209 23.417 10.9209C23.5467 10.9209 23.9194 10.6543 24.2453 10.3284C24.9623 9.61161 24.9704 9.29625 24.2808 8.9594C23.8392 8.74357 23.8009 8.6819 23.8009 8.18539C23.8009 7.70487 23.6349 7.33872 23.417 7.33872C23.3748 7.33872 23.2711 7.4078 23.1867 7.49224Z" fill="black"/>
<path d="M26.1498 6.41119C25.6977 6.81675 25.318 7.46218 25.3596 7.75476C25.3908 7.97494 25.5055 8.05733 25.8483 8.10633C26.2944 8.17004 26.2963 8.17324 26.3342 8.8953C26.3768 9.70538 26.6081 10.0415 26.936 9.76948C27.0633 9.6638 27.1279 9.37723 27.1279 8.9182C27.1279 8.2033 27.1332 8.19665 27.7997 8.05055C28.3254 7.9354 28.2422 7.58512 27.5124 6.8399C26.8303 6.14342 26.5475 6.05438 26.1498 6.41119Z" fill="black"/>
<path fill-rule="evenodd" clip-rule="evenodd" d="M35.8293 0.297705C35.7238 0.368453 35.5052 0.427175 35.3437 0.428326C34.9108 0.431141 33.195 1.63948 32.7426 2.25984C31.8674 3.46025 31.5679 4.33097 31.5679 5.67557C31.5679 7.61416 32.3947 9.13019 34.0659 10.256C35.1625 10.9948 35.4933 11.0849 37.109 11.0849C38.7246 11.0849 39.0554 10.9948 40.152 10.256C41.8232 9.13019 42.65 7.61416 42.65 5.67557C42.65 4.33097 42.3505 3.46025 41.4753 2.25984C41.0149 1.62835 39.4134 0.509053 38.7725 0.370756C38.0222 0.208919 36.0354 0.159536 35.8293 0.297705ZM41.3567 5.67557C41.3567 4.07446 40.0648 2.27532 38.506 1.70575C37.1755 1.21947 34.9336 1.58997 34.9336 2.29592C34.9336 2.53016 40.2631 7.85046 40.4976 7.85046C40.8343 7.85046 41.3567 6.52787 41.3567 5.67557ZM39.2843 9.05522C39.2843 8.96106 38.0746 7.67276 36.5961 6.1923C35.1176 4.71196 33.8234 3.50068 33.7203 3.50068C33.3836 3.50068 32.8613 4.82327 32.8613 5.67557C32.8613 7.27667 34.1532 9.07582 35.7119 9.64538C36.5392 9.94769 37.6025 9.96688 38.3875 9.69361C39.0505 9.46282 39.2843 9.29638 39.2843 9.05522Z" fill="black"/>
<path d="M48.8373 0.408368C48.7209 0.53707 48.6255 0.813409 48.6255 1.02245C48.6255 1.53803 48.4165 1.70959 47.788 1.70959C46.8132 1.70959 46.8341 1.60558 46.8341 6.46544C46.8341 10.457 46.8502 10.7679 47.0681 10.965C47.2725 11.1499 47.6996 11.1768 50.4393 11.1768C53.316 11.1768 53.5939 11.1573 53.7881 10.9428C53.9764 10.7349 53.9999 10.2313 53.9999 6.42092C53.9999 1.58063 54.0267 1.70959 53.0237 1.70959C52.4105 1.70959 52.2085 1.53381 52.2085 1.00019C52.2085 0.305893 51.9198 0.174376 50.3947 0.174376C49.2536 0.174376 49.0168 0.209941 48.8373 0.408368Z" fill="black"/>
</svg>
