<svg width="19" height="20" viewBox="0.1668701171875 0.40000152587890625 18.666259765625 19.199996948242188" fill="none" xmlns="http://www.w3.org/2000/svg">
<path d="M16.7676 10.7244C16.8043 10.419 16.8287 10.1014 16.8287 9.77164C16.8287 9.44185 16.8043 9.12427 16.7554 8.81891L18.8197 7.20659C19.0029 7.06001 19.0518 6.79129 18.9418 6.58364L16.9875 3.20021C16.8654 2.98035 16.6089 2.90706 16.389 2.98035L13.9583 3.95751C13.4453 3.56665 12.9078 3.24907 12.3093 3.00478L11.9429 0.415295C11.9063 0.171004 11.6986 0 11.4543 0H7.54566C7.30136 0 7.10593 0.171004 7.06929 0.415295L6.70285 3.00478C6.10434 3.24907 5.55468 3.57886 5.05389 3.95751L2.62319 2.98035C2.40333 2.89485 2.14682 2.98035 2.02468 3.20021L0.0703501 6.58364C-0.0517954 6.80351 -0.002937 7.06001 0.192496 7.20659L2.25676 8.81891C2.2079 9.12427 2.17125 9.45406 2.17125 9.77164C2.17125 10.0892 2.19568 10.419 2.24454 10.7244L0.180281 12.3367C-0.00293729 12.4833 -0.0517954 12.752 0.0581356 12.9596L2.01246 16.3431C2.13461 16.5629 2.39112 16.6362 2.61098 16.5629L5.04167 15.5858C5.55468 15.9766 6.09212 16.2942 6.69064 16.5385L7.05707 19.128C7.10593 19.3723 7.30136 19.5433 7.54566 19.5433H11.4543C11.6986 19.5433 11.9063 19.3723 11.9307 19.128L12.2971 16.5385C12.8956 16.2942 13.4453 15.9644 13.9461 15.5858L16.3768 16.5629C16.5966 16.6484 16.8531 16.5629 16.9753 16.3431L18.9296 12.9596C19.0518 12.7398 19.0029 12.4833 18.8075 12.3367L16.7676 10.7244ZM9.49998 13.436C7.48458 13.436 5.83562 11.787 5.83562 9.77164C5.83562 7.75624 7.48458 6.10728 9.49998 6.10728C11.5154 6.10728 13.1644 7.75624 13.1644 9.77164C13.1644 11.787 11.5154 13.436 9.49998 13.436Z" fill="#7E7E7E"/>
</svg>
